<svg width="31" height="31" viewBox="0 0 31 31" fill="none" xmlns="http://www.w3.org/2000/svg">
<rect x="0.160034" y="0.439941" width="30" height="30" rx="15" fill="#A8A5A0"/>
<path d="M12.3029 19.4402C12.3029 19.9163 12.1362 20.3211 11.8029 20.6544C11.4696 20.9878 11.0648 21.1544 10.5886 21.1544C10.1124 21.1544 9.70766 20.9878 9.37433 20.6544C9.041 20.3211 8.87433 19.9163 8.87433 19.4402C8.87433 18.964 9.041 18.5592 9.37433 18.2259C9.70766 17.8925 10.1124 17.7259 10.5886 17.7259C11.0648 17.7259 11.4696 17.8925 11.8029 18.2259C12.1362 18.5592 12.3029 18.964 12.3029 19.4402ZM16.8743 20.5384C16.8862 20.705 16.8356 20.8479 16.7225 20.9669C16.6154 21.0919 16.4755 21.1544 16.3029 21.1544H15.0975C14.9487 21.1544 14.8208 21.1053 14.7136 21.0071C14.6065 20.9089 14.5469 20.7854 14.535 20.6366C14.4041 19.2735 13.855 18.1083 12.8877 17.141C11.9205 16.1738 10.7553 15.6247 9.39219 15.4937C9.24338 15.4818 9.11986 15.4223 9.02165 15.3152C8.92344 15.208 8.87433 15.08 8.87433 14.9312V13.7259C8.87433 13.5532 8.93683 13.4134 9.06183 13.3062C9.16302 13.205 9.291 13.1544 9.44576 13.1544H9.4904C10.4428 13.2318 11.3535 13.4714 12.2225 13.8732C13.0916 14.275 13.8624 14.8152 14.535 15.4937C15.2136 16.1663 15.7538 16.9372 16.1556 17.8062C16.5574 18.6753 16.7969 19.586 16.8743 20.5384ZM21.4458 20.5562C21.4577 20.7169 21.4041 20.8568 21.285 20.9759C21.1779 21.0949 21.041 21.1544 20.8743 21.1544H19.5975C19.4428 21.1544 19.3103 21.1024 19.2002 20.9982C19.0901 20.894 19.0321 20.7675 19.0261 20.6187C18.9547 19.339 18.6541 18.1232 18.1243 16.9714C17.5946 15.8196 16.9056 14.8196 16.0574 13.9714C15.2092 13.1232 14.2092 12.4342 13.0574 11.9044C11.9056 11.3747 10.6898 11.0711 9.41004 10.9937C9.26123 10.9878 9.13475 10.9297 9.03058 10.8196C8.92641 10.7095 8.87433 10.58 8.87433 10.4312V9.15444C8.87433 8.98777 8.93385 8.85086 9.0529 8.74372C9.16004 8.63658 9.291 8.58301 9.44576 8.58301H9.47254C11.0321 8.66039 12.5246 9.01753 13.9502 9.65444C15.3758 10.2913 16.6422 11.1663 17.7493 12.2794C18.8624 13.3866 19.7374 14.6529 20.3743 16.0785C21.0112 17.5041 21.3684 18.9967 21.4458 20.5562Z" fill="#FFFDF9"/>
</svg>
