<svg width="64" height="22" viewBox="0 0 64 22" fill="none" xmlns="http://www.w3.org/2000/svg">
<path d="M0.929066 15.4399V5.25812H7.45179V6.80429H2.77353V9.56849H7.00435V11.1147H2.77353V15.4399H0.929066ZM11.8231 15.5891C11.0773 15.5891 10.431 15.425 9.88414 15.0969C9.33727 14.7688 8.91303 14.3097 8.61142 13.7198C8.31312 13.1298 8.16397 12.4404 8.16397 11.6516C8.16397 10.8628 8.31312 10.1717 8.61142 9.57844C8.91303 8.98516 9.33727 8.52446 9.88414 8.19633C10.431 7.86821 11.0773 7.70415 11.8231 7.70415C12.5688 7.70415 13.2151 7.86821 13.762 8.19633C14.3089 8.52446 14.7314 8.98516 15.0297 9.57844C15.3314 10.1717 15.4822 10.8628 15.4822 11.6516C15.4822 12.4404 15.3314 13.1298 15.0297 13.7198C14.7314 14.3097 14.3089 14.7688 13.762 15.0969C13.2151 15.425 12.5688 15.5891 11.8231 15.5891ZM11.833 14.1473C12.2374 14.1473 12.5754 14.0363 12.8472 13.8142C13.119 13.5889 13.3212 13.2872 13.4537 12.9094C13.5896 12.5316 13.6576 12.1106 13.6576 11.6466C13.6576 11.1793 13.5896 10.7567 13.4537 10.3789C13.3212 9.99771 13.119 9.69444 12.8472 9.46906C12.5754 9.24368 12.2374 9.13099 11.833 9.13099C11.4187 9.13099 11.074 9.24368 10.7989 9.46906C10.5271 9.69444 10.3233 9.99771 10.1874 10.3789C10.0548 10.7567 9.98855 11.1793 9.98855 11.6466C9.98855 12.1106 10.0548 12.5316 10.1874 12.9094C10.3233 13.2872 10.5271 13.5889 10.7989 13.8142C11.074 14.0363 11.4187 14.1473 11.833 14.1473ZM18.8094 5.25812V15.4399H17.0097V5.25812H18.8094ZM22.4598 5.25812V15.4399H20.6601V5.25812H22.4598ZM27.6414 15.5891C26.8957 15.5891 26.2494 15.425 25.7025 15.0969C25.1556 14.7688 24.7314 14.3097 24.4298 13.7198C24.1315 13.1298 23.9823 12.4404 23.9823 11.6516C23.9823 10.8628 24.1315 10.1717 24.4298 9.57844C24.7314 8.98516 25.1556 8.52446 25.7025 8.19633C26.2494 7.86821 26.8957 7.70415 27.6414 7.70415C28.3872 7.70415 29.0335 7.86821 29.5803 8.19633C30.1272 8.52446 30.5498 8.98516 30.8481 9.57844C31.1497 10.1717 31.3005 10.8628 31.3005 11.6516C31.3005 12.4404 31.1497 13.1298 30.8481 13.7198C30.5498 14.3097 30.1272 14.7688 29.5803 15.0969C29.0335 15.425 28.3872 15.5891 27.6414 15.5891ZM27.6514 14.1473C28.0557 14.1473 28.3938 14.0363 28.6656 13.8142C28.9374 13.5889 29.1395 13.2872 29.2721 12.9094C29.408 12.5316 29.4759 12.1106 29.4759 11.6466C29.4759 11.1793 29.408 10.7567 29.2721 10.3789C29.1395 9.99771 28.9374 9.69444 28.6656 9.46906C28.3938 9.24368 28.0557 9.13099 27.6514 9.13099C27.2371 9.13099 26.8924 9.24368 26.6173 9.46906C26.3455 9.69444 26.1417 9.99771 26.0058 10.3789C25.8732 10.7567 25.8069 11.1793 25.8069 11.6466C25.8069 12.1106 25.8732 12.5316 26.0058 12.9094C26.1417 13.2872 26.3455 13.5889 26.6173 13.8142C26.8924 14.0363 27.2371 14.1473 27.6514 14.1473ZM34.1853 15.4399L32.0276 7.80358H33.8621L35.2045 13.1729H35.2741L36.6462 7.80358H38.4608L39.833 13.1431H39.9076L41.23 7.80358H43.0695L40.9069 15.4399H39.0326L37.6008 10.2794H37.4964L36.0645 15.4399H34.1853ZM52.6659 12.2283V7.80358H54.4656V15.4399H52.7206V14.0827H52.6411C52.4687 14.5103 52.1853 14.8599 51.7909 15.1317C51.3998 15.4035 50.9176 15.5394 50.3442 15.5394C49.8437 15.5394 49.4012 15.4283 49.0168 15.2063C48.6356 14.9809 48.3373 14.6544 48.1219 14.2269C47.9065 13.796 47.7987 13.2756 47.7987 12.6658V7.80358H49.5985V12.3874C49.5985 12.8713 49.731 13.2558 49.9962 13.5408C50.2613 13.8258 50.6093 13.9684 51.0402 13.9684C51.3054 13.9684 51.5622 13.9037 51.8108 13.7745C52.0594 13.6452 52.2632 13.453 52.4223 13.1978C52.5847 12.9392 52.6659 12.6161 52.6659 12.2283ZM62.3518 9.82204L60.7112 10.001C60.6648 9.8353 60.5836 9.67952 60.4676 9.53369C60.3549 9.38786 60.2024 9.2702 60.0102 9.18071C59.818 9.09122 59.5827 9.04648 59.3042 9.04648C58.9297 9.04648 58.6148 9.12768 58.3596 9.29008C58.1077 9.45249 57.9835 9.66295 57.9868 9.92148C57.9835 10.1435 58.0647 10.3242 58.2304 10.4634C58.3994 10.6026 58.6778 10.7169 59.0656 10.8064L60.3682 11.0848C61.0907 11.2406 61.6276 11.4875 61.979 11.8256C62.3336 12.1637 62.5126 12.6061 62.5159 13.153C62.5126 13.6336 62.3717 14.0578 62.0933 14.4257C61.8182 14.7903 61.4354 15.0754 60.9449 15.2809C60.4543 15.4863 59.8909 15.5891 59.2545 15.5891C58.3199 15.5891 57.5675 15.3935 56.9974 15.0024C56.4273 14.608 56.0876 14.0595 55.9782 13.3568L57.7332 13.1878C57.8128 13.5325 57.9818 13.7927 58.2403 13.9684C58.4988 14.144 58.8353 14.2318 59.2496 14.2318C59.6771 14.2318 60.0202 14.144 60.2787 13.9684C60.5405 13.7927 60.6714 13.5756 60.6714 13.3171C60.6714 13.0983 60.5869 12.9177 60.4179 12.7752C60.2522 12.6326 59.9936 12.5233 59.6423 12.447L58.3398 12.1736C57.6073 12.0211 57.0654 11.7643 56.714 11.403C56.3627 11.0384 56.1887 10.5777 56.192 10.0209C56.1887 9.55026 56.3163 9.14259 56.5748 8.7979C56.8367 8.44988 57.1996 8.18142 57.6636 7.9925C58.1309 7.80026 58.6695 7.70415 59.2794 7.70415C60.1743 7.70415 60.8786 7.89472 61.3923 8.27588C61.9094 8.65703 62.2292 9.17242 62.3518 9.82204Z" fill="#403F3E"/>
</svg>
