<svg width="31" height="31" viewBox="0 0 31 31" fill="none" xmlns="http://www.w3.org/2000/svg">
<rect x="0.160034" y="0.439941" width="30" height="30" rx="15" fill="#A8A5A0"/>
<g clip-path="url(#clip0_1_649)">
<path fill-rule="evenodd" clip-rule="evenodd" d="M23.16 22.7124H19.6237V17.599C19.6237 16.2608 19.0709 15.347 17.8542 15.347C16.924 15.347 16.4066 15.9637 16.1659 16.5579C16.0753 16.771 16.0895 17.0681 16.0895 17.3652V22.7124H12.5862C12.5862 22.7124 12.6313 13.6546 12.5862 12.8314H16.0895V14.3823C16.2968 13.7041 17.416 12.7364 19.2022 12.7364C21.4186 12.7364 23.16 14.1575 23.16 17.2179V22.7124ZM9.04367 11.5954H9.02076C7.89203 11.5954 7.16003 10.8401 7.16003 9.88263C7.16003 8.90663 7.91349 8.16699 9.06513 8.16699C10.2157 8.16699 10.9233 8.90481 10.9455 9.87972C10.9455 10.8372 10.2157 11.5954 9.04367 11.5954ZM7.56367 12.8314H10.6822V22.7124H7.56367V12.8314Z" fill="#FFFDF9"/>
</g>
<defs>
<clipPath id="clip0_1_649">
<rect width="16" height="16" fill="white" transform="translate(7.16003 7.43994)"/>
</clipPath>
</defs>
</svg>
