<svg width="31" height="31" viewBox="0 0 31 31" fill="none" xmlns="http://www.w3.org/2000/svg">
<rect x="0.160034" y="0.439941" width="30" height="30" rx="15" fill="#A8A5A0"/>
<g clip-path="url(#clip0_1_655)">
<path fill-rule="evenodd" clip-rule="evenodd" d="M23.16 10.3518C22.5625 10.6239 21.9268 10.8027 21.275 10.8818C21.9651 10.4558 22.4778 9.79456 22.7183 9.0201C22.0759 9.41125 21.3701 9.68728 20.6327 9.83577C20.0357 9.18177 19.182 8.77344 18.237 8.77344C16.4253 8.77344 14.9557 10.2804 14.9557 12.1394C14.9557 12.4031 14.984 12.6594 15.0403 12.9061C12.312 12.7648 9.89334 11.4268 8.27334 9.38744C7.9813 9.90428 7.82854 10.4881 7.83001 11.0818C7.83001 12.2491 8.40934 13.2794 9.29001 13.8834C8.7675 13.8661 8.25704 13.722 7.80267 13.4634V13.5048C7.80267 15.1361 8.93434 16.4971 10.437 16.8051C10.1556 16.8849 9.86447 16.9248 9.57201 16.9238C9.36454 16.924 9.15755 16.9039 8.95401 16.8638C9.37201 18.2004 10.5833 19.1744 12.0203 19.2004C10.897 20.1038 9.48101 20.6421 7.94367 20.6421C7.67867 20.6421 7.41701 20.6264 7.16034 20.5958C8.61301 21.5491 10.339 22.1068 12.192 22.1068C18.2303 22.1068 21.5317 16.9784 21.5317 12.5301C21.5317 12.3838 21.5287 12.2374 21.523 12.0941C22.1682 11.6156 22.7226 11.0255 23.16 10.3518Z" fill="#FFFDF9"/>
</g>
<defs>
<clipPath id="clip0_1_655">
<rect width="16" height="16" fill="white" transform="translate(7.16003 7.43994)"/>
</clipPath>
</defs>
</svg>
