<svg width="31" height="31" viewBox="0 0 31 31" fill="none" xmlns="http://www.w3.org/2000/svg">
<rect x="0.160034" y="0.439941" width="30" height="30" rx="15" fill="#A8A5A0"/>
<g clip-path="url(#clip0_1_658)">
<path fill-rule="evenodd" clip-rule="evenodd" d="M13.508 17.5301L13.5074 13.0028L17.8307 15.2741L13.508 17.5301ZM23 12.2181C23 12.2181 22.8434 11.1081 22.364 10.6188C21.7554 9.97677 21.0734 9.97377 20.761 9.93677C18.522 9.77344 15.1637 9.77344 15.1637 9.77344H15.1564C15.1564 9.77344 11.798 9.77344 9.55903 9.93677C9.24603 9.97344 8.5647 9.97677 7.9557 10.6184C7.47603 11.1078 7.32003 12.2181 7.32003 12.2181C7.32003 12.2181 7.16003 13.5224 7.16003 14.8261V16.0488C7.16003 17.3528 7.32003 18.6564 7.32003 18.6564C7.32003 18.6564 7.47603 19.7668 7.9557 20.2558C8.5647 20.8978 9.36403 20.8778 9.72003 20.9448C11 21.0684 15.16 21.1068 15.16 21.1068C15.16 21.1068 18.522 21.1018 20.761 20.9384C21.0737 20.9008 21.7554 20.8978 22.364 20.2558C22.8434 19.7668 23 18.6564 23 18.6564C23 18.6564 23.16 17.3531 23.16 16.0488V14.8261C23.16 13.5224 23 12.2181 23 12.2181Z" fill="#FFFDF9"/>
</g>
<defs>
<clipPath id="clip0_1_658">
<rect width="16" height="16" fill="white" transform="translate(7.16003 7.43994)"/>
</clipPath>
</defs>
</svg>
