<svg width="29" height="30" viewBox="0 0 29 30" fill="none" xmlns="http://www.w3.org/2000/svg">
<rect x="0.199997" y="0.5" width="28" height="29" rx="8" fill="#FFFDF9"/>
<g clip-path="url(#clip0_1_20)">
<path d="M14.4041 12.8489V16.8007H19.8958C19.6546 18.0716 18.931 19.1477 17.8456 19.8713L21.1573 22.4409C23.0868 20.6598 24.2 18.0438 24.2 14.9362C24.2 14.2126 24.1351 13.5168 24.0145 12.849L14.4041 12.8489Z" fill="#4285F4"/>
<path d="M8.68547 16.6462L7.93856 17.218L5.29472 19.2773C6.97376 22.6076 10.4151 24.9082 14.4039 24.9082C17.159 24.9082 19.4688 23.9991 21.1572 22.4407L17.8455 19.8711C16.9364 20.4833 15.7768 20.8544 14.4039 20.8544C11.7509 20.8544 9.49676 19.064 8.68965 16.6521L8.68547 16.6462Z" fill="#34A853"/>
<path d="M5.29454 10.1309C4.59884 11.5037 4.2 13.0529 4.2 14.7041C4.2 16.3553 4.59884 17.9045 5.29454 19.2773C5.29454 19.2865 8.6898 16.6428 8.6898 16.6428C8.48571 16.0306 8.36509 15.3812 8.36509 14.704C8.36509 14.0267 8.48571 13.3774 8.6898 12.7652L5.29454 10.1309Z" fill="#FBBC05"/>
<path d="M14.4042 8.5631C15.907 8.5631 17.2428 9.08257 18.3096 10.0844L21.2316 7.16238C19.4598 5.51119 17.1593 4.5 14.4042 4.5C10.4153 4.5 6.97376 6.79129 5.29472 10.1308L8.68986 12.7654C9.49687 10.3534 11.7511 8.5631 14.4042 8.5631Z" fill="#EA4335"/>
</g>
<defs>
<clipPath id="clip0_1_20">
<rect width="20" height="21" fill="white" transform="translate(4.2 4.5)"/>
</clipPath>
</defs>
</svg>
