<svg width="1920" height="441" viewBox="0 0 1920 441" fill="none" xmlns="http://www.w3.org/2000/svg">
<g clip-path="url(#clip0_1_272)">
<path d="M641.036 278.357L640.865 277.824L747.276 180.406V133.469H576.559V180.406H678.531L678.698 180.855L573.325 278.357V325.293H748.99V278.361L641.036 278.357ZM853.798 129.003C834.108 129.003 818.059 131.968 805.656 137.912C794.101 143.088 784.368 151.617 777.719 162.393C771.358 173.237 767.364 185.305 765.998 197.803L817.795 205.086C819.671 194.045 823.419 186.225 829.039 181.615C835.43 176.794 843.304 174.359 851.301 174.73C861.813 174.73 869.439 177.538 874.178 183.162C878.876 188.782 881.262 196.566 881.262 206.828V211.943H831.457C806.106 211.943 787.893 217.562 776.816 228.807C765.743 240.046 760.216 254.89 760.234 273.33C760.234 292.214 765.761 306.27 776.82 315.49C787.875 324.705 801.778 329.287 818.527 329.232C839.306 329.232 855.294 322.083 866.478 307.781C873.084 298.996 877.802 288.94 880.336 278.245H882.217L889.356 325.182H936.293V206.318C936.293 181.754 929.821 162.726 916.871 149.239C903.927 135.744 882.898 128.998 853.798 128.998V129.003ZM870.217 275.517C862.767 281.729 853.015 284.82 840.872 284.82C830.864 284.82 823.915 283.068 820.019 279.566C818.12 277.908 816.609 275.853 815.594 273.547C814.578 271.24 814.083 268.738 814.144 266.218C814.033 263.841 814.408 261.466 815.244 259.239C816.08 257.011 817.361 254.977 819.009 253.26C820.789 251.589 822.89 250.296 825.184 249.46C827.478 248.624 829.918 248.262 832.356 248.395H881.346V251.629C881.445 256.198 880.493 260.728 878.563 264.871C876.634 269.013 873.778 272.652 870.217 275.517ZM1220.11 133.469H1164.66V325.321H1220.11V133.469ZM1547.52 133.469C1531.86 133.469 1519.51 138.996 1510.48 150.055C1504 157.996 1499.07 169.736 1495.7 185.266H1494.06L1486.81 133.469H1439.46V325.293H1494.91V226.921C1494.91 214.518 1497.81 205.007 1503.62 198.396C1509.43 191.78 1520.15 188.472 1535.78 188.472H1556.82V133.469H1547.52ZM1384.42 139.737C1371.48 132.037 1355.14 128.196 1335.44 128.215C1304.4 128.215 1280.12 137.045 1262.58 154.716C1245.04 172.386 1236.28 196.746 1236.28 227.797C1235.83 246.567 1239.93 265.167 1248.22 282.012C1255.81 297.023 1267.63 309.481 1282.23 317.848C1296.92 326.336 1314.39 330.589 1334.65 330.608C1352.17 330.608 1366.8 327.911 1378.55 322.514C1389.59 317.667 1399.21 310.069 1406.49 300.447C1413.41 291.002 1418.55 280.373 1421.66 269.081L1373.88 255.706C1371.87 263.047 1368 269.746 1362.64 275.155C1357.24 280.548 1348.2 283.249 1335.52 283.249C1320.43 283.249 1309.19 278.931 1301.79 270.29C1296.42 264.05 1293.05 255.141 1291.56 243.591H1422.39C1422.93 238.193 1423.21 233.667 1423.21 230.016V218.067C1423.52 202.021 1420.21 186.111 1413.52 171.524C1407.24 158.238 1397.1 147.158 1384.42 139.737ZM1333.83 173.943C1356.32 173.943 1369.06 185.006 1372.08 207.138H1292.54C1293.8 199.753 1296.86 192.791 1301.45 186.869C1308.74 178.233 1319.53 173.924 1333.83 173.943ZM1192.99 56.1486C1188.82 56.0057 1184.66 56.7032 1180.76 58.1995C1176.87 59.6958 1173.31 61.9604 1170.31 64.8587C1167.35 67.788 1165.03 71.2988 1163.49 75.1694C1161.96 79.0401 1161.25 83.1866 1161.4 87.3472C1161.25 91.5349 1161.96 95.7087 1163.5 99.6076C1165.03 103.507 1167.35 107.047 1170.32 110.007C1173.28 112.97 1176.83 115.289 1180.73 116.821C1184.63 118.352 1188.8 119.062 1192.99 118.907C1197.15 119.064 1201.3 118.353 1205.17 116.819C1209.04 115.285 1212.55 112.962 1215.47 109.998C1218.38 107.004 1220.64 103.453 1222.13 99.5593C1223.63 95.6656 1224.32 91.5098 1224.16 87.3426C1224.35 83.2015 1223.68 79.0655 1222.18 75.1994C1220.69 71.3333 1218.4 67.8223 1215.47 64.8911C1212.54 61.9574 1209.03 59.6671 1205.16 58.1666C1201.3 56.6661 1197.16 55.9883 1193.02 56.1764L1192.99 56.1486ZM1078.43 128.215C1059.54 128.215 1044.36 134.145 1032.9 146.006C1024.4 154.79 1018.18 167.91 1014.21 185.354H1012.44L1005.18 133.557H957.823V380.44H1013.27V278.75H1015.3C1016.99 285.532 1019.36 292.124 1022.38 298.427C1027.07 308.694 1034.77 317.298 1044.45 323.102C1054.49 328.58 1065.79 331.306 1077.22 331.001C1100.44 331.001 1118.11 321.958 1130.25 303.88C1142.4 285.797 1148.47 260.566 1148.47 228.186C1148.47 196.913 1142.59 172.432 1130.85 154.743C1119.1 137.059 1101.63 128.215 1078.43 128.215ZM1084.05 267.228C1077.58 276.596 1067.47 281.28 1053.69 281.28C1048.02 281.542 1042.36 280.447 1037.19 278.086C1032.01 275.726 1027.48 272.167 1023.96 267.705C1016.78 258.694 1013.2 246.352 1013.22 230.688V227.037C1013.22 211.127 1016.8 198.947 1023.96 190.496C1031.11 182.046 1041.03 177.867 1053.69 177.959C1067.71 177.959 1077.89 182.407 1084.25 191.312C1090.6 200.212 1093.77 212.624 1093.77 228.552C1093.81 245.022 1090.59 257.916 1084.1 267.228H1084.05Z" fill="#201515"/>
<path d="M551.879 278.356H360.026V325.354H551.879V278.356Z" fill="#FF4F00"/>
</g>
<defs>
<clipPath id="clip0_1_272">
<rect width="1199.95" height="324.31" fill="white" transform="translate(360.026 56.1299)"/>
</clipPath>
</defs>
</svg>
